<svg width="120" height="120" viewBox="0 0 120 120" fill="none" xmlns="http://www.w3.org/2000/svg"
     xmlns:xlink="http://www.w3.org/1999/xlink">


    <!--    skills-->
    <g id="html">
        <desc>
            Created with Pixso.
        </desc>
        <defs>
            <clipPath id="clip2_5893">
                <rect width="120.000000" height="120.000000" fill="white" fill-opacity="0"/>
            </clipPath>
        </defs>
        <rect width="120.000000" height="120.000000" fill="#FFFFFF" fill-opacity="0"/>
        <path d="M22.1326 102.004L13.7063 7.5L106.294 7.5L97.8563 101.989L59.9438 112.5L22.1326 102.004Z" fill="#E44F26"
              fill-opacity="1.000000" fill-rule="nonzero"/>
        <path d="M60 104.468L90.6375 95.9738L97.845 15.2288L60 15.2288L60 104.468Z" fill="#F1662A"
              fill-opacity="1.000000" fill-rule="nonzero"/>
        <path d="M60 50.2762L44.6625 50.2762L43.605 38.4076L60 38.4076L60 26.8163L30.9375 26.8163L31.215 29.9288L34.0613 61.8676L60 61.8676L60 50.2762ZM60 80.3776L59.9475 80.3926L47.04 76.9088L46.215 67.665L34.5787 67.665L36.2025 85.86L59.9475 92.4525L60 92.4375L60 80.3776Z"
              fill="#EBEBEB" fill-opacity="1.000000" fill-rule="nonzero"/>
        <path d="M59.9587 50.2762L59.9587 61.8676L74.2312 61.8676L72.8888 76.9012L59.9587 80.3888L59.9587 92.4487L83.7225 85.86L83.895 83.9026L86.6174 53.3888L86.9025 50.2762L59.9587 50.2762ZM59.9587 26.8163L59.9587 38.4076L87.9563 38.4076L88.1887 35.8051L88.7175 29.9288L88.995 26.8163L59.9587 26.8163Z"
              fill="#FFFFFF" fill-opacity="1.000000" fill-rule="nonzero"/>
    </g>

    <g id="css">
        <desc>
            Created with Pixso.
        </desc>
        <defs>
            <clipPath id="clip2_5886">
                <rect width="120.000000" height="119.000000" fill="white" fill-opacity="0"/>
            </clipPath>
        </defs>
        <rect width="120.000000" height="119.000000" fill="#FFFFFF" fill-opacity="0"/>
        <g clip-path="url(#clip2_5886)">
            <path d="M22.1324 101.154L13.71 7.4375L106.29 7.4375L97.8562 101.139L59.9437 111.562L22.1324 101.154Z"
                  fill="#1572B6" fill-opacity="1.000000" fill-rule="nonzero"/>
            <path d="M60 103.597L90.6375 95.174L97.845 15.1018L60 15.1018L60 103.597Z" fill="#33A9DC"
                  fill-opacity="1.000000" fill-rule="nonzero"/>
            <path d="M60 49.0541L75.3375 49.0541L76.395 37.2842L60 37.2842L60 25.7896L89.0625 25.7896L88.785 28.8724L85.9387 60.5487L60 60.5487L60 49.0541Z"
                  fill="#FFFFFF" fill-opacity="1.000000" fill-rule="nonzero"/>
            <path d="M60.0713 78.9044L60.0188 78.9193L47.1113 75.4609L46.2863 66.2942L34.65 66.2942L36.2738 84.3413L60.015 90.8788L60.0713 90.864L60.0713 78.9044Z"
                  fill="#EBEBEB" fill-opacity="1.000000" fill-rule="nonzero"/>
            <path d="M74.3513 60.0615L72.9563 75.4535L60.03 78.9119L60.03 90.8713L83.79 84.3412L83.9663 82.4L85.98 60.0615L74.3513 60.0615Z"
                  fill="#FFFFFF" fill-opacity="1.000000" fill-rule="nonzero"/>
            <path d="M60.0413 25.7896L60.0413 37.2842L32.0437 37.2842L31.8113 34.6997L31.2825 28.8724L31.005 25.7896L60.0413 25.7896ZM60 49.0541L60 60.5487L47.2538 60.5487L47.0212 57.9642L46.4962 52.1368L46.2188 49.0541L60 49.0541Z"
                  fill="#EBEBEB" fill-opacity="1.000000" fill-rule="nonzero"/>
        </g>
    </g>

    <g id="js">
        <desc>
            Created with Pixso.
        </desc>
        <defs>
            <clipPath id="clip2_5883">
                <rect width="120.000000" height="120.000000" fill="white" fill-opacity="0"/>
            </clipPath>
        </defs>
        <rect width="120.000000" height="120.000000" fill="#FFFFFF" fill-opacity="0"/>
        <g clip-path="url(#clip2_5883)">
            <path d="M7.5 7.5L112.5 7.5L112.5 112.5L7.5 112.5L7.5 7.5Z" fill="#F5DE19" fill-opacity="1.000000"
                  fill-rule="nonzero"/>
            <path d="M78.0338 89.5312C78.9285 91.3485 80.3184 92.876 82.0435 93.9375C83.7684 94.999 85.7583 95.5515 87.7838 95.5312C91.8712 95.5312 94.485 93.4875 94.485 90.6562C94.485 87.2812 91.8 86.0737 87.3 84.105L84.8325 83.0475C77.7075 80.0138 72.9825 76.215 72.9825 68.1825C72.9825 60.7837 78.6075 55.1475 87.4313 55.1475C90.2877 54.9413 93.1416 55.5806 95.637 56.9856C98.1324 58.3907 100.159 60.4994 101.464 63.0487L93.75 67.98C93.2476 66.7159 92.3728 65.6345 91.2416 64.879C90.1105 64.1237 88.7764 63.7299 87.4163 63.75C86.8229 63.6906 86.2236 63.7555 85.6566 63.9404C85.0897 64.1255 84.5675 64.4265 84.1234 64.8245C83.6792 65.2224 83.3228 65.7085 83.0769 66.2518C82.8309 66.795 82.7009 67.3837 82.6951 67.98C82.6951 70.9387 84.5288 72.1388 88.7626 73.98L91.23 75.0375C99.615 78.6338 104.355 82.2975 104.355 90.5363C104.355 99.42 97.3762 104.287 88.005 104.287C84.3536 104.52 80.713 103.691 77.5223 101.901C74.3317 100.11 71.7274 97.4342 70.0238 94.1963L78.0338 89.5312ZM43.1775 90.3862C44.7263 93.135 46.1362 95.46 49.5262 95.46C52.7662 95.46 54.8137 94.1925 54.8137 89.2612L54.8137 55.71L64.6801 55.71L64.6801 89.3925C64.6801 99.6075 58.6801 104.257 49.9463 104.257C46.8591 104.426 43.7931 103.657 41.1514 102.051C38.5096 100.444 36.4158 98.076 35.145 95.2574L43.1775 90.3862Z"
                  fill="#000000" fill-opacity="1.000000" fill-rule="nonzero"/>
        </g>
    </g>

    <g id="git">
        <desc>
            Created with Pixso.
        </desc>
        <defs>
            <filter id="filter_2_5868_dd" x="0.000000" y="0.000000" width="113.000000" height="113.000000"
                    filterUnits="userSpaceOnUse" color-interpolation-filters="sRGB">
                <feFlood flood-opacity="0" result="BackgroundImageFix"/>
                <feColorMatrix in="SourceAlpha" type="matrix" values="0 0 0 0 0 0 0 0 0 0 0 0 0 0 0 0 0 0 127 0"
                               result="hardAlpha"/>
                <feOffset dx="0" dy="4"/>
                <feGaussianBlur stdDeviation="1.33333"/>
                <feComposite in2="hardAlpha" operator="out" k2="-1" k3="1"/>
                <feColorMatrix type="matrix" values="0 0 0 0 0 0 0 0 0 0 0 0 0 0 0 0 0 0 0.25 0"/>
                <feBlend mode="normal" in2="BackgroundImageFix" result="effect_dropShadow_1"/>
                <feBlend mode="normal" in="SourceGraphic" in2="effect_dropShadow_1" result="shape"/>
            </filter>
            <clipPath id="clip2_5868">
                <rect width="105.000000" height="105.000000" transform="translate(4.000000 0.000000)" fill="white"
                      fill-opacity="0"/>
            </clipPath>
        </defs>
        <g filter="url(#filter_2_5868_dd)">
            <rect width="105.000000" height="105.000000" transform="translate(4.000000 0.000000)" fill="#FFFFFF"
                  fill-opacity="0"/>
            <g clip-path="url(#clip2_5868)">
                <path d="M107.02 47.8219L61.1758 1.98035C58.5372 -0.65979 54.2552 -0.65979 51.6134 1.98035L42.0936 11.5001L54.1699 23.5763C56.9762 22.6281 60.1943 23.2642 62.4313 25.5012C64.679 27.7526 65.3105 30.9982 64.3394 33.8135L75.9775 45.452C78.7932 44.4821 82.0421 45.1095 84.291 47.3621C87.434 50.5039 87.434 55.5961 84.291 58.7399C81.1471 61.8842 76.0551 61.8842 72.9095 58.7399C70.5454 56.3733 69.9613 52.9012 71.1582 49.9888L60.3046 39.1353L60.3033 67.6973C61.0902 68.0863 61.8087 68.6001 62.4313 69.219C65.5743 72.3607 65.5743 77.4532 62.4313 80.5996C59.2875 83.7422 54.1929 83.7422 51.0536 80.5996C47.9105 77.4532 47.9105 72.3611 51.0536 69.2194C51.8068 68.4658 52.7019 67.869 53.6871 67.4635L53.6871 38.6353C52.7004 38.2324 51.8048 37.6353 51.0536 36.8794C48.6721 34.5012 48.0996 31.0071 49.3198 28.0831L37.4154 16.1775L5.98108 47.6099C3.3396 50.2524 3.3396 54.5349 5.98108 57.1755L51.8258 103.018C54.4652 105.658 58.7465 105.658 61.389 103.018L107.019 57.3884C109.66 54.7469 109.66 50.462 107.019 47.8219L107.02 47.8219Z"
                      fill="#DE4C36" fill-opacity="1.000000" fill-rule="nonzero"/>
            </g>
        </g>
    </g>

    <g id="react">
        <desc>
            Created with Pixso.
        </desc>
        <defs>
            <clipPath id="clip2_5870">
                <rect width="113.000000" height="101.000000" fill="white" fill-opacity="0"/>
            </clipPath>
        </defs>
        <rect width="113.000000" height="101.000000" fill="#FFFFFF" fill-opacity="0"/>
        <g clip-path="url(#clip2_5870)">
            <path d="M92.9055 32.7028C91.703 32.2887 90.4902 31.9052 89.2686 31.5524C89.4738 30.7107 89.6627 29.8792 89.8304 29.0624C92.5837 15.6484 90.7838 4.8418 84.636 1.28381C78.7415 -2.1272 69.1016 1.42957 59.3657 9.93347C58.4062 10.7731 57.468 11.6368 56.552 12.524C55.9388 11.9341 55.3148 11.3556 54.6802 10.7889C44.4766 1.69617 34.2491 -2.13599 28.1079 1.43225C22.2188 4.85376 20.475 15.0127 22.9536 27.7255C23.2003 28.9845 23.4788 30.2371 23.7887 31.4819C22.3411 31.8948 20.9441 32.3342 19.6072 32.802C7.64429 36.9882 0.00463867 43.5483 0.00463867 50.353C0.00463867 57.3809 8.20618 64.4301 20.666 68.7043C21.6761 69.0496 22.6947 69.3693 23.7207 69.6635C23.3876 71.0043 23.0917 72.3541 22.8336 73.7114C20.4705 86.2035 22.3159 96.1223 28.1892 99.5222C34.2554 103.033 44.4369 99.4248 54.3505 90.7268C55.1544 90.0198 55.9406 89.2925 56.7083 88.546C57.7003 89.5067 58.7188 90.4393 59.7626 91.343C69.3658 99.6366 78.8501 102.985 84.7177 99.5763C90.7781 96.0551 92.7479 85.3995 90.1906 72.4357C89.9891 71.42 89.7632 70.4094 89.5131 69.4048C90.2281 69.1921 90.9299 68.9733 91.614 68.7456C104.567 64.4385 112.995 57.4749 112.995 50.353C112.995 43.5236 105.109 36.9191 92.9055 32.7028ZM90.0962 64.1475C89.4783 64.3525 88.8444 64.5505 88.1982 64.7433C86.7682 60.1996 84.8385 55.3684 82.4768 50.3765C84.7303 45.5037 86.5859 40.734 87.9758 36.2201C89.1317 36.5558 90.2533 36.9098 91.3346 37.2832C101.791 40.8962 108.168 46.2372 108.168 50.353C108.168 54.7367 101.28 60.4277 90.0962 64.1475ZM85.4556 73.3766C86.5864 79.1088 86.7474 84.2916 85.9984 88.3436C85.3258 91.9845 83.9725 94.4116 82.299 95.3839C78.7384 97.4526 71.1234 94.7638 62.9109 87.6707C61.9399 86.8306 60.9926 85.9634 60.0697 85.0704C63.2538 81.5757 66.4357 77.5132 69.5411 73.0009C75.0035 72.5145 80.1639 71.7189 84.8439 70.6332C85.0692 71.5426 85.2732 72.4574 85.4556 73.3766ZM38.5256 95.0264C35.0468 96.2593 32.2759 96.2947 30.6008 95.3254C27.0367 93.2625 25.5551 85.2981 27.5762 74.6151C27.8164 73.3528 28.0914 72.0973 28.401 70.8502C33.0293 71.8779 38.1522 72.6168 43.6274 73.0625C46.754 77.4777 50.0277 81.5359 53.3269 85.0895C52.6259 85.7704 51.9081 86.4338 51.1744 87.0793C46.7903 90.9253 42.3973 93.6541 38.5256 95.0264ZM22.2277 64.1204C16.718 62.2302 12.1678 59.7739 9.04919 57.0934C6.24646 54.6849 4.83191 52.2932 4.83191 50.353C4.83191 46.2235 10.9656 40.9564 21.1962 37.3767C22.4377 36.9425 23.7371 36.5328 25.0854 36.1483C26.4996 40.7642 28.3542 45.5905 30.5924 50.4708C28.3251 55.4233 26.444 60.3267 25.0162 64.9971C24.0796 64.7278 23.1498 64.4355 22.2277 64.1204ZM27.6909 26.7947C25.5675 15.9031 26.9777 7.68713 30.5267 5.625C34.3065 3.42871 42.6653 6.56018 51.4753 14.4116C52.0499 14.9247 52.6151 15.4482 53.1707 15.9819C49.8878 19.52 46.6442 23.5481 43.5453 27.9371C38.2312 28.4315 33.1444 29.2253 28.4677 30.2889C28.1796 29.1311 27.9205 27.9662 27.6909 26.7952L27.6909 26.7947ZM76.4301 38.874C75.3253 36.9589 74.1797 35.068 72.9939 33.2025C76.599 33.66 80.0532 34.2673 83.2969 35.0099C82.3231 38.1426 81.1094 41.4176 79.6807 44.7754C78.6364 42.7867 77.5526 40.8192 76.4301 38.874ZM56.5542 19.4443C58.7805 21.8652 61.0104 24.5679 63.2035 27.5004C58.7545 27.2896 54.2981 27.2886 49.849 27.4977C52.0443 24.5922 54.2931 21.8931 56.5542 19.4443ZM36.5509 38.9072C35.4424 40.8368 34.3788 42.792 33.3612 44.7714C31.9558 41.4255 30.7531 38.1355 29.771 34.9585C32.9949 34.2346 36.4326 33.6428 40.0148 33.1936C38.8158 35.0706 37.6609 36.9755 36.5509 38.9067L36.5509 38.9072ZM40.1177 67.8569C36.4167 67.4424 32.9272 66.8811 29.7043 66.1768C30.7019 62.943 31.9312 59.583 33.3669 56.1654C34.3885 58.1462 35.4565 60.1027 36.5699 62.0331C37.7148 64.0177 38.9004 65.9614 40.1177 67.8569ZM56.6875 81.6028C54.3995 79.1256 52.1176 76.3849 49.8892 73.4373C52.0527 73.5223 54.2583 73.5657 56.5 73.5657C58.803 73.5657 61.0796 73.5139 63.3204 73.4138C61.1202 76.4146 58.8988 79.1592 56.6875 81.6028ZM79.7262 55.9908C81.2366 59.446 82.5094 62.7883 83.5201 65.9668C80.2444 66.7172 76.7072 67.3214 72.9802 67.7701C74.1746 65.87 75.3309 63.9462 76.449 61.9999C77.5857 60.0215 78.6783 58.0179 79.7262 55.9908ZM72.2679 59.5795C70.5564 62.5635 68.7485 65.491 66.8474 68.3571C63.4037 68.6019 59.9524 68.7235 56.5 68.7217C52.9835 68.7217 49.5634 68.6118 46.2699 68.3975C44.3191 65.5378 42.4769 62.6053 40.7471 59.606L40.7474 59.606C39.0258 56.6226 37.4176 53.5746 35.9264 50.4686C37.4138 47.3619 39.0171 44.3125 40.7329 41.3268L40.7324 41.3271C42.4476 38.3407 44.2751 35.4207 46.2112 32.5735C49.5713 32.3182 53.0171 32.1854 56.4995 32.1854L56.5 32.1854C59.9983 32.1854 63.4485 32.3196 66.8077 32.5765C68.7241 35.4196 70.54 38.3295 72.252 41.301C73.9735 44.2802 75.598 47.3148 77.1229 50.3999C75.6136 53.5166 73.9943 56.5784 72.2679 59.5795ZM82.2252 5.48059C86.0087 7.67078 87.4801 16.5024 85.1029 28.0842C84.951 28.8231 84.7808 29.5758 84.5953 30.339C79.9071 29.2528 74.8168 28.4453 69.4873 27.9434C66.3827 23.506 63.1655 19.4718 59.936 15.9792C60.7823 15.1604 61.6489 14.3628 62.5348 13.5872C70.8767 6.30151 78.6731 3.42468 82.2252 5.48059ZM56.5 40.2264C62.0723 40.2264 66.5897 44.7604 66.5897 50.353C66.5897 55.9457 62.0723 60.4795 56.5 60.4795C50.9276 60.4795 46.4103 55.9457 46.4103 50.353C46.4103 44.7604 50.9276 40.2264 56.5 40.2264Z"
                  fill="#00D8FF" fill-opacity="1.000000" fill-rule="nonzero"/>
        </g>
    </g>

    <g id="github">
        <desc>
            Created with Pixso.
        </desc>
        <defs>
            <clipPath id="clip2_5866">
                <rect width="88.000000" height="88.000000" fill="white" fill-opacity="0"/>
            </clipPath>
        </defs>
        <rect width="88.000000" height="88.000000" fill="#FFFFFF" fill-opacity="0"/>
        <g clip-path="url(#clip2_5866)">
            <path d="M44 0C19.69 0 0 19.6899 0 44C0 63.47 12.595 79.915 30.085 85.745C32.285 86.13 33.11 84.8101 33.11 83.655C33.11 82.61 33.055 79.145 33.055 75.46C22 77.495 19.14 72.765 18.26 70.29C17.765 69.025 15.62 65.12 13.75 64.075C12.21 63.25 10.01 61.215 13.695 61.16C17.16 61.105 19.635 64.35 20.46 65.67C24.42 72.325 30.745 70.455 33.275 69.3C33.66 66.4399 34.815 64.515 36.08 63.415C26.29 62.3149 16.06 58.52 16.06 41.6899C16.06 36.905 17.765 32.9449 20.57 29.865C20.13 28.765 18.59 24.255 21.01 18.205C21.01 18.205 24.695 17.05 33.11 22.715C36.63 21.725 40.37 21.23 44.11 21.23C47.85 21.23 51.59 21.725 55.11 22.715C63.525 16.995 67.21 18.205 67.21 18.205C69.63 24.255 68.09 28.765 67.65 29.865C70.455 32.9449 72.16 36.85 72.16 41.6899C72.16 58.575 61.875 62.3149 52.085 63.415C53.68 64.79 55.055 67.4301 55.055 71.5551C55.055 77.4399 55 82.17 55 83.655C55 84.8101 55.825 86.1851 58.025 85.745C66.7596 82.796 74.3497 77.1821 79.7267 69.6937C85.1039 62.2052 87.9974 53.219 88 44C88 19.6899 68.31 0 44 0Z"
                  fill="#FFFEFE" fill-opacity="1.000000" fill-rule="evenodd"/>
        </g>
    </g>

    <g id="redux">
        <desc>
            Created with Pixso.
        </desc>
        <defs/>
        <path id="Vector" d="M72.6971 69.5627C76.5688 69.1619 79.5061 65.8242 79.3726 61.8185C79.2394 57.8131 75.9012 54.6086 71.8959 54.6086L71.6292 54.6086C67.4897 54.7422 64.2856 58.2135 64.4193 62.3524C64.5529 64.3553 65.3536 66.0909 66.5553 67.2926C62.016 76.2385 55.0734 82.7808 44.6594 88.2549C37.5833 91.9934 30.2401 93.3287 22.8971 92.3943C16.8889 91.593 12.2159 88.923 9.27832 84.5164C5.0061 77.9741 4.60571 70.8976 8.21069 63.8213C10.7476 58.7476 14.7524 55.009 17.2893 53.1398C16.7554 51.4041 15.9541 48.4668 15.5537 46.3307C-3.80579 60.35 -1.80286 79.3094 4.07178 88.2549C8.47742 94.9312 17.423 99.0701 27.3029 99.0701C29.9729 99.0701 32.6431 98.8029 35.3135 98.1356C52.4033 94.7975 65.3541 84.65 72.6971 69.5627ZM96.1954 53.0066C86.0483 41.1234 71.0951 34.5812 54.0054 34.5812L51.8693 34.5812C50.6676 32.1779 48.1307 30.5754 45.327 30.5754L45.0598 30.5754C40.9213 30.709 37.7172 34.1803 37.8505 38.3197C37.984 42.325 41.3217 45.5295 45.327 45.5295L45.5939 45.5295C48.5311 45.3959 51.068 43.5266 52.1361 40.9897L54.5393 40.9897C64.6865 40.9897 74.2992 43.927 82.9779 49.6685C89.6533 54.0746 94.4598 59.816 97.1299 66.7585C99.3995 72.3665 99.266 77.8406 96.8627 82.5139C93.1246 89.5902 86.8496 93.4623 78.5718 93.4623C73.2312 93.4623 68.1578 91.8599 65.4873 90.6582C64.0188 91.9934 61.3484 94.1295 59.4791 95.4652C65.2205 98.1353 71.0951 99.6041 76.7025 99.6041C89.5197 99.6041 98.9991 92.5275 102.604 85.4512C106.476 77.707 106.209 64.3553 96.1954 53.0066ZM28.3708 71.832C28.5045 75.8376 31.8422 79.0417 35.8475 79.0417L36.1147 79.0417C40.2537 78.9086 43.4578 75.4369 43.3242 71.298C43.1909 67.2922 39.8529 64.0881 35.8475 64.0881L35.5807 64.0881C35.3135 64.0881 34.9127 64.0881 34.6464 64.2213C29.1721 55.1422 26.9025 45.2623 27.7037 34.5807C28.2373 26.5697 30.9078 19.6266 35.5807 13.8853C39.4524 8.94507 46.9291 6.54175 52.0028 6.40857C66.1549 6.14136 72.1627 23.7656 72.5635 30.8422C74.2992 31.2427 77.2365 32.1775 79.2394 32.8451C77.6368 11.2156 64.2856 0 51.4689 0C39.4524 0 28.3708 8.67871 23.9647 21.4963C17.8234 38.5864 21.8287 55.009 29.3053 67.9602C28.6381 68.8947 28.2373 70.3635 28.3708 71.8324L28.3708 71.832Z" fill="#764ABC" fill-opacity="1.000000" fill-rule="nonzero"/>
    </g>

    <g id="typescript">
        <path fill="#fff" d="M22.67 47h99.67v73.67H22.67z"/><path data-name="original" fill="#007acc" d="M1.5 63.91v62.5h125v-125H1.5zm100.73-5a15.56 15.56 0 017.82 4.5 20.58 20.58 0 013 4c0 .16-5.4 3.81-8.69 5.85-.12.08-.6-.44-1.13-1.23a7.09 7.09 0 00-5.87-3.53c-3.79-.26-6.23 1.73-6.21 5a4.58 4.58 0 00.54 2.34c.83 1.73 2.38 2.76 7.24 4.86 8.95 3.85 12.78 6.39 15.16 10 2.66 4 3.25 10.46 1.45 15.24-2 5.2-6.9 8.73-13.83 9.9a38.32 38.32 0 01-9.52-.1 23 23 0 01-12.72-6.63c-1.15-1.27-3.39-4.58-3.25-4.82a9.34 9.34 0 011.15-.73L82 101l3.59-2.08.75 1.11a16.78 16.78 0 004.74 4.54c4 2.1 9.46 1.81 12.16-.62a5.43 5.43 0 00.69-6.92c-1-1.39-3-2.56-8.59-5-6.45-2.78-9.23-4.5-11.77-7.24a16.48 16.48 0 01-3.43-6.25 25 25 0 01-.22-8c1.33-6.23 6-10.58 12.82-11.87a31.66 31.66 0 019.49.26zm-29.34 5.24v5.12H56.66v46.23H45.15V69.26H28.88v-5a49.19 49.19 0 01.12-5.17C29.08 59 39 59 51 59h21.83z"/>
    </g>

</svg>