<svg width="21.000000" height="21.000000" viewBox="0 0 21 21" fill="none" xmlns="http://www.w3.org/2000/svg" xmlns:xlink="http://www.w3.org/1999/xlink">
	<desc>
			Created with Pixso.
	</desc>
	<defs>
		<clipPath id="clip20_2002">
			<rect id="instagram-svg" width="21.000000" height="21.000000" fill="white" fill-opacity="0"/>
		</clipPath>
	</defs>
	<rect id="instagram-svg" width="21.000000" height="21.000000" fill="#FFFFFF" fill-opacity="0"/>
	<g clip-path="url(#clip20_2002)">
		<path id="Vector" d="M15.6515 2.1001L5.34841 2.1001C3.55685 2.1001 2.09998 3.5564 2.09998 5.34729L2.09998 8.77808L2.09998 15.653C2.09998 17.4438 3.55685 18.9001 5.34841 18.9001L15.6515 18.9001C17.4431 18.9001 18.9 17.4438 18.9 15.653L18.9 8.77161L18.9 5.3407C18.8934 3.5564 17.4365 2.1001 15.6515 2.1001ZM16.5834 4.03528L16.9575 4.03528L16.9575 4.40259L16.9575 6.88232L14.1159 6.88879L14.1093 4.04187L16.5834 4.03528ZM8.0981 8.77161C8.63622 8.03027 9.50904 7.53833 10.4934 7.53833C11.4778 7.53833 12.3506 8.02368 12.8887 8.77161C13.2431 9.25696 13.4465 9.854 13.4465 10.4968C13.4465 12.1237 12.1209 13.4553 10.4868 13.4553C8.85279 13.4553 7.54029 12.1237 7.54029 10.4968C7.54029 9.854 7.75029 9.25696 8.0981 8.77161ZM17.2594 15.6464C17.2594 16.532 16.5375 17.2535 15.6515 17.2535L5.34841 17.2535C4.46248 17.2535 3.7406 16.532 3.7406 15.6464L3.7406 8.77161L6.24747 8.77161C6.03091 9.30286 5.90623 9.88672 5.90623 10.4968C5.90623 13.0289 7.96685 15.0887 10.5 15.0887C13.0331 15.0887 15.0937 13.0289 15.0937 10.4968C15.0937 9.88672 14.969 9.30286 14.7525 8.77161L17.2594 8.77161L17.2594 15.6464Z" fill="#7572D5" fill-opacity="1.000000" fill-rule="nonzero"/>
	</g>
</svg>
