<svg width="21.000000" height="21.000000" viewBox="0 0 21 21" fill="none" xmlns="http://www.w3.org/2000/svg" xmlns:xlink="http://www.w3.org/1999/xlink">
	<desc>
			Created with Pixso.
	</desc>
	<defs>
		<clipPath id="clip20_1987">
			<rect id="linkedin-svg" width="20.999998" height="20.999998" fill="white" fill-opacity="0"/>
		</clipPath>
	</defs>
	<rect id="linkedin-svg" width="20.999998" height="20.999998" fill="#FFFFFF" fill-opacity="0"/>
	<g clip-path="url(#clip20_1987)">
		<path id="Vector" d="M2.53296 7.88623L5.80637 7.88623L5.80637 18.3624L2.53296 18.3624L2.53296 7.88623Z" fill="#7572D5" fill-opacity="1.000000" fill-rule="evenodd"/>
		<path id="Vector" d="M4.10077 2.93994C2.89374 2.93994 2.09998 3.72058 2.09998 4.75708C2.09998 5.7738 2.86749 6.5741 4.05484 6.5741L4.08109 6.5741C5.31433 6.5741 6.08185 5.76733 6.07529 4.75708C6.04907 3.72058 5.30777 2.93994 4.10077 2.93994Z" fill="#7572D5" fill-opacity="1.000000" fill-rule="nonzero"/>
		<path id="Vector" d="M14.7476 7.7876C12.8714 7.7876 11.6972 8.81091 11.4807 9.53259L11.4807 7.88599L7.8006 7.88599C7.84653 8.75842 7.8006 18.3622 7.8006 18.3622L11.4807 18.3622L11.4807 12.701C11.4807 12.3795 11.4676 12.0647 11.5594 11.8417C11.8087 11.2119 12.3532 10.5559 13.3306 10.5559C14.6098 10.5559 15.1871 11.5267 15.1871 12.9437L15.1871 18.3622L18.9 18.3622L18.9 12.537C18.9 9.29639 17.0764 7.7876 14.7476 7.7876Z" fill="#7572D5" fill-opacity="1.000000" fill-rule="nonzero"/>
	</g>
</svg>
