<svg width="113.000000" height="101.000000" viewBox="0 0 113 101" fill="none" xmlns="http://www.w3.org/2000/svg" xmlns:xlink="http://www.w3.org/1999/xlink">
	<desc>
			Created with Pixso.
	</desc>
	<defs>
		<clipPath id="clip2_5870">
			<rect width="113.000000" height="101.000000" fill="white" fill-opacity="0"/>
		</clipPath>
	</defs>
	<rect width="113.000000" height="101.000000" fill="#FFFFFF" fill-opacity="0"/>
	<g clip-path="url(#clip2_5870)">
		<path d="M92.9055 32.7028C91.703 32.2887 90.4902 31.9052 89.2686 31.5524C89.4738 30.7107 89.6627 29.8792 89.8304 29.0624C92.5837 15.6484 90.7838 4.8418 84.636 1.28381C78.7415 -2.1272 69.1016 1.42957 59.3657 9.93347C58.4062 10.7731 57.468 11.6368 56.552 12.524C55.9388 11.9341 55.3148 11.3556 54.6802 10.7889C44.4766 1.69617 34.2491 -2.13599 28.1079 1.43225C22.2188 4.85376 20.475 15.0127 22.9536 27.7255C23.2003 28.9845 23.4788 30.2371 23.7887 31.4819C22.3411 31.8948 20.9441 32.3342 19.6072 32.802C7.64429 36.9882 0.00463867 43.5483 0.00463867 50.353C0.00463867 57.3809 8.20618 64.4301 20.666 68.7043C21.6761 69.0496 22.6947 69.3693 23.7207 69.6635C23.3876 71.0043 23.0917 72.3541 22.8336 73.7114C20.4705 86.2035 22.3159 96.1223 28.1892 99.5222C34.2554 103.033 44.4369 99.4248 54.3505 90.7268C55.1544 90.0198 55.9406 89.2925 56.7083 88.546C57.7003 89.5067 58.7188 90.4393 59.7626 91.343C69.3658 99.6366 78.8501 102.985 84.7177 99.5763C90.7781 96.0551 92.7479 85.3995 90.1906 72.4357C89.9891 71.42 89.7632 70.4094 89.5131 69.4048C90.2281 69.1921 90.9299 68.9733 91.614 68.7456C104.567 64.4385 112.995 57.4749 112.995 50.353C112.995 43.5236 105.109 36.9191 92.9055 32.7028ZM90.0962 64.1475C89.4783 64.3525 88.8444 64.5505 88.1982 64.7433C86.7682 60.1996 84.8385 55.3684 82.4768 50.3765C84.7303 45.5037 86.5859 40.734 87.9758 36.2201C89.1317 36.5558 90.2533 36.9098 91.3346 37.2832C101.791 40.8962 108.168 46.2372 108.168 50.353C108.168 54.7367 101.28 60.4277 90.0962 64.1475ZM85.4556 73.3766C86.5864 79.1088 86.7474 84.2916 85.9984 88.3436C85.3258 91.9845 83.9725 94.4116 82.299 95.3839C78.7384 97.4526 71.1234 94.7638 62.9109 87.6707C61.9399 86.8306 60.9926 85.9634 60.0697 85.0704C63.2538 81.5757 66.4357 77.5132 69.5411 73.0009C75.0035 72.5145 80.1639 71.7189 84.8439 70.6332C85.0692 71.5426 85.2732 72.4574 85.4556 73.3766ZM38.5256 95.0264C35.0468 96.2593 32.2759 96.2947 30.6008 95.3254C27.0367 93.2625 25.5551 85.2981 27.5762 74.6151C27.8164 73.3528 28.0914 72.0973 28.401 70.8502C33.0293 71.8779 38.1522 72.6168 43.6274 73.0625C46.754 77.4777 50.0277 81.5359 53.3269 85.0895C52.6259 85.7704 51.9081 86.4338 51.1744 87.0793C46.7903 90.9253 42.3973 93.6541 38.5256 95.0264ZM22.2277 64.1204C16.718 62.2302 12.1678 59.7739 9.04919 57.0934C6.24646 54.6849 4.83191 52.2932 4.83191 50.353C4.83191 46.2235 10.9656 40.9564 21.1962 37.3767C22.4377 36.9425 23.7371 36.5328 25.0854 36.1483C26.4996 40.7642 28.3542 45.5905 30.5924 50.4708C28.3251 55.4233 26.444 60.3267 25.0162 64.9971C24.0796 64.7278 23.1498 64.4355 22.2277 64.1204ZM27.6909 26.7947C25.5675 15.9031 26.9777 7.68713 30.5267 5.625C34.3065 3.42871 42.6653 6.56018 51.4753 14.4116C52.0499 14.9247 52.6151 15.4482 53.1707 15.9819C49.8878 19.52 46.6442 23.5481 43.5453 27.9371C38.2312 28.4315 33.1444 29.2253 28.4677 30.2889C28.1796 29.1311 27.9205 27.9662 27.6909 26.7952L27.6909 26.7947ZM76.4301 38.874C75.3253 36.9589 74.1797 35.068 72.9939 33.2025C76.599 33.66 80.0532 34.2673 83.2969 35.0099C82.3231 38.1426 81.1094 41.4176 79.6807 44.7754C78.6364 42.7867 77.5526 40.8192 76.4301 38.874ZM56.5542 19.4443C58.7805 21.8652 61.0104 24.5679 63.2035 27.5004C58.7545 27.2896 54.2981 27.2886 49.849 27.4977C52.0443 24.5922 54.2931 21.8931 56.5542 19.4443ZM36.5509 38.9072C35.4424 40.8368 34.3788 42.792 33.3612 44.7714C31.9558 41.4255 30.7531 38.1355 29.771 34.9585C32.9949 34.2346 36.4326 33.6428 40.0148 33.1936C38.8158 35.0706 37.6609 36.9755 36.5509 38.9067L36.5509 38.9072ZM40.1177 67.8569C36.4167 67.4424 32.9272 66.8811 29.7043 66.1768C30.7019 62.943 31.9312 59.583 33.3669 56.1654C34.3885 58.1462 35.4565 60.1027 36.5699 62.0331C37.7148 64.0177 38.9004 65.9614 40.1177 67.8569ZM56.6875 81.6028C54.3995 79.1256 52.1176 76.3849 49.8892 73.4373C52.0527 73.5223 54.2583 73.5657 56.5 73.5657C58.803 73.5657 61.0796 73.5139 63.3204 73.4138C61.1202 76.4146 58.8988 79.1592 56.6875 81.6028ZM79.7262 55.9908C81.2366 59.446 82.5094 62.7883 83.5201 65.9668C80.2444 66.7172 76.7072 67.3214 72.9802 67.7701C74.1746 65.87 75.3309 63.9462 76.449 61.9999C77.5857 60.0215 78.6783 58.0179 79.7262 55.9908ZM72.2679 59.5795C70.5564 62.5635 68.7485 65.491 66.8474 68.3571C63.4037 68.6019 59.9524 68.7235 56.5 68.7217C52.9835 68.7217 49.5634 68.6118 46.2699 68.3975C44.3191 65.5378 42.4769 62.6053 40.7471 59.606L40.7474 59.606C39.0258 56.6226 37.4176 53.5746 35.9264 50.4686C37.4138 47.3619 39.0171 44.3125 40.7329 41.3268L40.7324 41.3271C42.4476 38.3407 44.2751 35.4207 46.2112 32.5735C49.5713 32.3182 53.0171 32.1854 56.4995 32.1854L56.5 32.1854C59.9983 32.1854 63.4485 32.3196 66.8077 32.5765C68.7241 35.4196 70.54 38.3295 72.252 41.301C73.9735 44.2802 75.598 47.3148 77.1229 50.3999C75.6136 53.5166 73.9943 56.5784 72.2679 59.5795ZM82.2252 5.48059C86.0087 7.67078 87.4801 16.5024 85.1029 28.0842C84.951 28.8231 84.7808 29.5758 84.5953 30.339C79.9071 29.2528 74.8168 28.4453 69.4873 27.9434C66.3827 23.506 63.1655 19.4718 59.936 15.9792C60.7823 15.1604 61.6489 14.3628 62.5348 13.5872C70.8767 6.30151 78.6731 3.42468 82.2252 5.48059ZM56.5 40.2264C62.0723 40.2264 66.5897 44.7604 66.5897 50.353C66.5897 55.9457 62.0723 60.4795 56.5 60.4795C50.9276 60.4795 46.4103 55.9457 46.4103 50.353C46.4103 44.7604 50.9276 40.2264 56.5 40.2264Z" fill="#00D8FF" fill-opacity="1.000000" fill-rule="nonzero"/>
	</g>
</svg>
