<svg width="113.000000" height="113.000000" viewBox="0 0 113 113" fill="none" xmlns="http://www.w3.org/2000/svg" xmlns:xlink="http://www.w3.org/1999/xlink">
	<desc>
			Created with Pixso.
	</desc>
	<defs>
		<filter id="filter_2_5868_dd" x="0.000000" y="0.000000" width="113.000000" height="113.000000" filterUnits="userSpaceOnUse" color-interpolation-filters="sRGB">
			<feFlood flood-opacity="0" result="BackgroundImageFix"/>
			<feColorMatrix in="SourceAlpha" type="matrix" values="0 0 0 0 0 0 0 0 0 0 0 0 0 0 0 0 0 0 127 0" result="hardAlpha"/>
			<feOffset dx="0" dy="4"/>
			<feGaussianBlur stdDeviation="1.33333"/>
			<feComposite in2="hardAlpha" operator="out" k2="-1" k3="1"/>
			<feColorMatrix type="matrix" values="0 0 0 0 0 0 0 0 0 0 0 0 0 0 0 0 0 0 0.25 0"/>
			<feBlend mode="normal" in2="BackgroundImageFix" result="effect_dropShadow_1"/>
			<feBlend mode="normal" in="SourceGraphic" in2="effect_dropShadow_1" result="shape"/>
		</filter>
		<clipPath id="clip2_5868">
			<rect width="105.000000" height="105.000000" transform="translate(4.000000 0.000000)" fill="white" fill-opacity="0"/>
		</clipPath>
	</defs>
	<g filter="url(#filter_2_5868_dd)">
		<rect width="105.000000" height="105.000000" transform="translate(4.000000 0.000000)" fill="#FFFFFF" fill-opacity="0"/>
		<g clip-path="url(#clip2_5868)">
			<path d="M107.02 47.8219L61.1758 1.98035C58.5372 -0.65979 54.2552 -0.65979 51.6134 1.98035L42.0936 11.5001L54.1699 23.5763C56.9762 22.6281 60.1943 23.2642 62.4313 25.5012C64.679 27.7526 65.3105 30.9982 64.3394 33.8135L75.9775 45.452C78.7932 44.4821 82.0421 45.1095 84.291 47.3621C87.434 50.5039 87.434 55.5961 84.291 58.7399C81.1471 61.8842 76.0551 61.8842 72.9095 58.7399C70.5454 56.3733 69.9613 52.9012 71.1582 49.9888L60.3046 39.1353L60.3033 67.6973C61.0902 68.0863 61.8087 68.6001 62.4313 69.219C65.5743 72.3607 65.5743 77.4532 62.4313 80.5996C59.2875 83.7422 54.1929 83.7422 51.0536 80.5996C47.9105 77.4532 47.9105 72.3611 51.0536 69.2194C51.8068 68.4658 52.7019 67.869 53.6871 67.4635L53.6871 38.6353C52.7004 38.2324 51.8048 37.6353 51.0536 36.8794C48.6721 34.5012 48.0996 31.0071 49.3198 28.0831L37.4154 16.1775L5.98108 47.6099C3.3396 50.2524 3.3396 54.5349 5.98108 57.1755L51.8258 103.018C54.4652 105.658 58.7465 105.658 61.389 103.018L107.019 57.3884C109.66 54.7469 109.66 50.462 107.019 47.8219L107.02 47.8219Z" fill="#DE4C36" fill-opacity="1.000000" fill-rule="nonzero"/>
		</g>
	</g>
</svg>
