<svg width="104.918091" height="99.604126" viewBox="0 0 104.918 99.6041" fill="none" xmlns="http://www.w3.org/2000/svg" xmlns:xlink="http://www.w3.org/1999/xlink">
	<desc>
			Created with Pixso.
	</desc>
	<defs/>
	<path id="Vector" d="M72.6971 69.5627C76.5688 69.1619 79.5061 65.8242 79.3726 61.8185C79.2394 57.8131 75.9012 54.6086 71.8959 54.6086L71.6292 54.6086C67.4897 54.7422 64.2856 58.2135 64.4193 62.3524C64.5529 64.3553 65.3536 66.0909 66.5553 67.2926C62.016 76.2385 55.0734 82.7808 44.6594 88.2549C37.5833 91.9934 30.2401 93.3287 22.8971 92.3943C16.8889 91.593 12.2159 88.923 9.27832 84.5164C5.0061 77.9741 4.60571 70.8976 8.21069 63.8213C10.7476 58.7476 14.7524 55.009 17.2893 53.1398C16.7554 51.4041 15.9541 48.4668 15.5537 46.3307C-3.80579 60.35 -1.80286 79.3094 4.07178 88.2549C8.47742 94.9312 17.423 99.0701 27.3029 99.0701C29.9729 99.0701 32.6431 98.8029 35.3135 98.1356C52.4033 94.7975 65.3541 84.65 72.6971 69.5627ZM96.1954 53.0066C86.0483 41.1234 71.0951 34.5812 54.0054 34.5812L51.8693 34.5812C50.6676 32.1779 48.1307 30.5754 45.327 30.5754L45.0598 30.5754C40.9213 30.709 37.7172 34.1803 37.8505 38.3197C37.984 42.325 41.3217 45.5295 45.327 45.5295L45.5939 45.5295C48.5311 45.3959 51.068 43.5266 52.1361 40.9897L54.5393 40.9897C64.6865 40.9897 74.2992 43.927 82.9779 49.6685C89.6533 54.0746 94.4598 59.816 97.1299 66.7585C99.3995 72.3665 99.266 77.8406 96.8627 82.5139C93.1246 89.5902 86.8496 93.4623 78.5718 93.4623C73.2312 93.4623 68.1578 91.8599 65.4873 90.6582C64.0188 91.9934 61.3484 94.1295 59.4791 95.4652C65.2205 98.1353 71.0951 99.6041 76.7025 99.6041C89.5197 99.6041 98.9991 92.5275 102.604 85.4512C106.476 77.707 106.209 64.3553 96.1954 53.0066ZM28.3708 71.832C28.5045 75.8376 31.8422 79.0417 35.8475 79.0417L36.1147 79.0417C40.2537 78.9086 43.4578 75.4369 43.3242 71.298C43.1909 67.2922 39.8529 64.0881 35.8475 64.0881L35.5807 64.0881C35.3135 64.0881 34.9127 64.0881 34.6464 64.2213C29.1721 55.1422 26.9025 45.2623 27.7037 34.5807C28.2373 26.5697 30.9078 19.6266 35.5807 13.8853C39.4524 8.94507 46.9291 6.54175 52.0028 6.40857C66.1549 6.14136 72.1627 23.7656 72.5635 30.8422C74.2992 31.2427 77.2365 32.1775 79.2394 32.8451C77.6368 11.2156 64.2856 0 51.4689 0C39.4524 0 28.3708 8.67871 23.9647 21.4963C17.8234 38.5864 21.8287 55.009 29.3053 67.9602C28.6381 68.8947 28.2373 70.3635 28.3708 71.8324L28.3708 71.832Z" fill="#764ABC" fill-opacity="1.000000" fill-rule="nonzero"/>
</svg>
