<svg width="21.000000" height="21.000000" viewBox="0 0 21 21" fill="none" xmlns="http://www.w3.org/2000/svg" xmlns:xlink="http://www.w3.org/1999/xlink">
	<desc>
			Created with Pixso.
	</desc>
	<defs>
		<clipPath id="clip20_1994">
			<rect id="vk-logo-svg" width="20.999998" height="20.999998" fill="white" fill-opacity="0"/>
		</clipPath>
	</defs>
	<rect id="vk-logo-svg" width="20.999998" height="20.999998" fill="#FFFFFF" fill-opacity="0"/>
	<g clip-path="url(#clip20_1994)">
		<path id="Vector" d="M18.1695 13.9939C17.8037 13.5389 17.3881 13.1311 16.9861 12.7368C16.8431 12.5966 16.6954 12.4515 16.5529 12.3074C16.1439 11.8929 16.129 11.7373 16.4528 11.2666C16.6768 10.9421 16.9144 10.6173 17.1441 10.3031C17.3525 10.0181 17.568 9.72327 17.7745 9.42749L17.8169 9.3667C18.2117 8.80078 18.6199 8.21558 18.8371 7.50964C18.8935 7.32336 18.9528 7.04932 18.8173 6.82007C18.682 6.59119 18.4194 6.52124 18.2337 6.48865C18.1418 6.47253 18.0505 6.47034 17.9659 6.47034L15.3809 6.46838L15.3595 6.46814C14.9687 6.46814 14.7053 6.65906 14.5543 7.05176C14.4102 7.42688 14.2519 7.82642 14.0713 8.2063C13.7119 8.96277 13.2554 9.83398 12.5948 10.5607L12.5668 10.5916C12.4888 10.6785 12.4005 10.7769 12.3359 10.7769C12.326 10.7769 12.3152 10.7748 12.303 10.7709C12.1662 10.7156 12.0743 10.3724 12.0785 10.2128C12.0785 10.2106 12.0786 10.2084 12.0786 10.2062L12.0768 7.11023C12.0768 7.09949 12.076 7.08887 12.0747 7.07825C12.0089 6.57495 11.8633 6.26172 11.3129 6.15002C11.2983 6.14697 11.2833 6.14551 11.2684 6.14551L8.58055 6.14551C8.14264 6.14551 7.90134 6.32996 7.67451 6.60596C7.6133 6.67981 7.48584 6.83337 7.54901 7.01978C7.61311 7.20886 7.82115 7.24927 7.8889 7.26245C8.22517 7.32874 8.41472 7.54187 8.46841 7.91431C8.56215 8.56091 8.57365 9.25122 8.50467 10.0865C8.48543 10.3187 8.44737 10.4979 8.38467 10.6511C8.3701 10.6869 8.31845 10.8036 8.26578 10.8036C8.24904 10.8036 8.20062 10.7969 8.11244 10.7339C7.90393 10.5858 7.75137 10.3746 7.57352 10.1138C6.96849 9.22766 6.46069 8.25171 6.02092 7.12915C5.85783 6.71594 5.55322 6.48462 5.16284 6.47778C4.7339 6.47095 4.345 6.46777 3.97409 6.46777C3.56882 6.46777 3.1931 6.47168 2.8262 6.47949C2.51213 6.48523 2.29488 6.58289 2.18056 6.76965C2.06607 6.95679 2.07352 7.20239 2.20271 7.49976C3.23698 9.88232 4.17473 11.6146 5.24341 13.1169C5.9922 14.1681 6.74329 14.8956 7.60681 15.4065C8.5166 15.9458 9.53615 16.208 10.7237 16.208C10.8583 16.208 10.9975 16.2046 11.1378 16.1978C11.8279 16.163 12.0838 15.9042 12.1162 15.208C12.1316 14.8522 12.1692 14.4791 12.338 14.1609C12.4445 13.9604 12.5438 13.9604 12.5765 13.9604C12.6394 13.9604 12.7173 13.9904 12.8011 14.0466C12.9513 14.1482 13.08 14.2843 13.1856 14.4032C13.285 14.5161 13.3833 14.6301 13.4816 14.7443C13.6939 14.9906 13.9133 15.2454 14.1426 15.4868C14.6444 16.0159 15.1973 16.2485 15.8322 16.1981L18.2023 16.1981C18.2073 16.1981 18.2124 16.1979 18.2174 16.1975C18.4536 16.1814 18.6581 16.0457 18.7786 15.8252C18.9278 15.552 18.9248 15.2035 18.7705 14.8927C18.5955 14.5413 18.3685 14.2411 18.1695 13.9939Z" fill="#7572D5" fill-opacity="1.000000" fill-rule="nonzero"/>
	</g>
</svg>
