<svg width="120.000000" height="120.000000" viewBox="0 0 120 120" fill="none" xmlns="http://www.w3.org/2000/svg" xmlns:xlink="http://www.w3.org/1999/xlink">
	<desc>
			Created with Pixso.
	</desc>
	<defs>
		<clipPath id="clip2_5893">
			<rect width="120.000000" height="120.000000" fill="white" fill-opacity="0"/>
		</clipPath>
	</defs>
	<rect width="120.000000" height="120.000000" fill="#FFFFFF" fill-opacity="0"/>
		<path d="M22.1326 102.004L13.7063 7.5L106.294 7.5L97.8563 101.989L59.9438 112.5L22.1326 102.004Z" fill="#E44F26" fill-opacity="1.000000" fill-rule="nonzero"/>
		<path d="M60 104.468L90.6375 95.9738L97.845 15.2288L60 15.2288L60 104.468Z" fill="#F1662A" fill-opacity="1.000000" fill-rule="nonzero"/>
		<path d="M60 50.2762L44.6625 50.2762L43.605 38.4076L60 38.4076L60 26.8163L30.9375 26.8163L31.215 29.9288L34.0613 61.8676L60 61.8676L60 50.2762ZM60 80.3776L59.9475 80.3926L47.04 76.9088L46.215 67.665L34.5787 67.665L36.2025 85.86L59.9475 92.4525L60 92.4375L60 80.3776Z" fill="#EBEBEB" fill-opacity="1.000000" fill-rule="nonzero"/>
		<path d="M59.9587 50.2762L59.9587 61.8676L74.2312 61.8676L72.8888 76.9012L59.9587 80.3888L59.9587 92.4487L83.7225 85.86L83.895 83.9026L86.6174 53.3888L86.9025 50.2762L59.9587 50.2762ZM59.9587 26.8163L59.9587 38.4076L87.9563 38.4076L88.1887 35.8051L88.7175 29.9288L88.995 26.8163L59.9587 26.8163Z" fill="#FFFFFF" fill-opacity="1.000000" fill-rule="nonzero"/>
</svg>
