<svg width="120.000000" height="120.000000" viewBox="0 0 120 120" fill="none" xmlns="http://www.w3.org/2000/svg" xmlns:xlink="http://www.w3.org/1999/xlink">
	<desc>
			Created with Pixso.
	</desc>
	<defs>
		<clipPath id="clip2_5883">
			<rect width="120.000000" height="120.000000" fill="white" fill-opacity="0"/>
		</clipPath>
	</defs>
	<rect width="120.000000" height="120.000000" fill="#FFFFFF" fill-opacity="0"/>
	<g clip-path="url(#clip2_5883)">
		<path d="M7.5 7.5L112.5 7.5L112.5 112.5L7.5 112.5L7.5 7.5Z" fill="#F5DE19" fill-opacity="1.000000" fill-rule="nonzero"/>
		<path d="M78.0338 89.5312C78.9285 91.3485 80.3184 92.876 82.0435 93.9375C83.7684 94.999 85.7583 95.5515 87.7838 95.5312C91.8712 95.5312 94.485 93.4875 94.485 90.6562C94.485 87.2812 91.8 86.0737 87.3 84.105L84.8325 83.0475C77.7075 80.0138 72.9825 76.215 72.9825 68.1825C72.9825 60.7837 78.6075 55.1475 87.4313 55.1475C90.2877 54.9413 93.1416 55.5806 95.637 56.9856C98.1324 58.3907 100.159 60.4994 101.464 63.0487L93.75 67.98C93.2476 66.7159 92.3728 65.6345 91.2416 64.879C90.1105 64.1237 88.7764 63.7299 87.4163 63.75C86.8229 63.6906 86.2236 63.7555 85.6566 63.9404C85.0897 64.1255 84.5675 64.4265 84.1234 64.8245C83.6792 65.2224 83.3228 65.7085 83.0769 66.2518C82.8309 66.795 82.7009 67.3837 82.6951 67.98C82.6951 70.9387 84.5288 72.1388 88.7626 73.98L91.23 75.0375C99.615 78.6338 104.355 82.2975 104.355 90.5363C104.355 99.42 97.3762 104.287 88.005 104.287C84.3536 104.52 80.713 103.691 77.5223 101.901C74.3317 100.11 71.7274 97.4342 70.0238 94.1963L78.0338 89.5312ZM43.1775 90.3862C44.7263 93.135 46.1362 95.46 49.5262 95.46C52.7662 95.46 54.8137 94.1925 54.8137 89.2612L54.8137 55.71L64.6801 55.71L64.6801 89.3925C64.6801 99.6075 58.6801 104.257 49.9463 104.257C46.8591 104.426 43.7931 103.657 41.1514 102.051C38.5096 100.444 36.4158 98.076 35.145 95.2574L43.1775 90.3862Z" fill="#000000" fill-opacity="1.000000" fill-rule="nonzero"/>
	</g>
</svg>
